<mxfile host="app.diagrams.net" modified="2020-10-21T16:56:56.060Z" agent="5.0 (Windows NT 10.0; Win64; x64) AppleWebKit/537.36 (KHTML, like Gecko) Chrome/86.0.4240.75 Safari/537.36" etag="8zgFat90bGh3YT2Vw7eO" version="13.8.1" type="github">
  <diagram id="-itqMvD3cVKKmhOZ7wiD" name="Page-1">
    <mxGraphModel dx="723" dy="1571" grid="1" gridSize="10" guides="1" tooltips="1" connect="1" arrows="1" fold="1" page="1" pageScale="1" pageWidth="827" pageHeight="1169" math="0" shadow="0">
      <root>
        <mxCell id="0" />
        <mxCell id="1" parent="0" />
        <mxCell id="Q8JPxETYIf0AdVCPlq3T-29" value="INICIO" style="ellipse;whiteSpace=wrap;html=1;" parent="1" vertex="1">
          <mxGeometry x="266.26" y="-40" width="90" height="40" as="geometry" />
        </mxCell>
        <mxCell id="Q8JPxETYIf0AdVCPlq3T-30" value="FIN" style="ellipse;whiteSpace=wrap;html=1;" parent="1" vertex="1">
          <mxGeometry x="385" y="490" width="85.62" height="50" as="geometry" />
        </mxCell>
        <mxCell id="Q8JPxETYIf0AdVCPlq3T-31" value="" style="endArrow=classic;html=1;exitX=0.46;exitY=1;exitDx=0;exitDy=0;exitPerimeter=0;" parent="1" edge="1">
          <mxGeometry width="50" height="50" relative="1" as="geometry">
            <mxPoint x="310.9999999999998" y="120" as="sourcePoint" />
            <mxPoint x="311" y="160" as="targetPoint" />
          </mxGeometry>
        </mxCell>
        <mxCell id="Q8JPxETYIf0AdVCPlq3T-32" value="" style="endArrow=classic;html=1;exitX=1;exitY=0.5;exitDx=0;exitDy=0;entryX=0;entryY=0.5;entryDx=0;entryDy=0;" parent="1" source="Q8JPxETYIf0AdVCPlq3T-33" edge="1">
          <mxGeometry width="50" height="50" relative="1" as="geometry">
            <mxPoint x="390" y="220" as="sourcePoint" />
            <mxPoint x="450" y="190" as="targetPoint" />
          </mxGeometry>
        </mxCell>
        <mxCell id="Q8JPxETYIf0AdVCPlq3T-33" value="ES RUTA ABSOLUTA?" style="rhombus;whiteSpace=wrap;html=1;shadow=0;fontFamily=Helvetica;fontSize=12;align=center;strokeWidth=1;spacing=6;spacingTop=-4;" parent="1" vertex="1">
          <mxGeometry x="243.12" y="160" width="133.75" height="60" as="geometry" />
        </mxCell>
        <mxCell id="Q8JPxETYIf0AdVCPlq3T-34" value="" style="endArrow=classic;html=1;exitX=0.5;exitY=1;exitDx=0;exitDy=0;entryX=0.5;entryY=0;entryDx=0;entryDy=0;" parent="1" source="Q8JPxETYIf0AdVCPlq3T-33" target="Q8JPxETYIf0AdVCPlq3T-51" edge="1">
          <mxGeometry width="50" height="50" relative="1" as="geometry">
            <mxPoint x="400" y="330" as="sourcePoint" />
            <mxPoint x="215" y="269.9999999999999" as="targetPoint" />
          </mxGeometry>
        </mxCell>
        <mxCell id="Q8JPxETYIf0AdVCPlq3T-35" value="" style="endArrow=classic;html=1;exitX=0.419;exitY=0.976;exitDx=0;exitDy=0;exitPerimeter=0;" parent="1" edge="1">
          <mxGeometry width="50" height="50" relative="1" as="geometry">
            <mxPoint x="301.53999999999996" y="369.28" as="sourcePoint" />
            <mxPoint x="259" y="410" as="targetPoint" />
            <Array as="points">
              <mxPoint x="311" y="369" />
            </Array>
          </mxGeometry>
        </mxCell>
        <mxCell id="Q8JPxETYIf0AdVCPlq3T-36" value="" style="endArrow=classic;html=1;exitX=0.5;exitY=1;exitDx=0;exitDy=0;entryX=0.5;entryY=0;entryDx=0;entryDy=0;" parent="1" target="Q8JPxETYIf0AdVCPlq3T-30" edge="1">
          <mxGeometry width="50" height="50" relative="1" as="geometry">
            <mxPoint x="311.26" y="370" as="sourcePoint" />
            <mxPoint x="410" y="500" as="targetPoint" />
          </mxGeometry>
        </mxCell>
        <mxCell id="Q8JPxETYIf0AdVCPlq3T-37" value="SI" style="text;html=1;align=center;verticalAlign=middle;resizable=0;points=[];autosize=1;" parent="1" vertex="1">
          <mxGeometry x="285" y="230" width="30" height="20" as="geometry" />
        </mxCell>
        <mxCell id="Q8JPxETYIf0AdVCPlq3T-38" value="NO" style="text;html=1;align=center;verticalAlign=middle;resizable=0;points=[];autosize=1;" parent="1" vertex="1">
          <mxGeometry x="341.26" y="380" width="30" height="20" as="geometry" />
        </mxCell>
        <mxCell id="Q8JPxETYIf0AdVCPlq3T-39" value="" style="endArrow=classic;html=1;exitX=0.5;exitY=1;exitDx=0;exitDy=0;entryX=0.5;entryY=0;entryDx=0;entryDy=0;" parent="1" target="Q8JPxETYIf0AdVCPlq3T-40" edge="1">
          <mxGeometry width="50" height="50" relative="1" as="geometry">
            <mxPoint x="259.3800000000001" y="470" as="sourcePoint" />
            <mxPoint x="259" y="510" as="targetPoint" />
            <Array as="points">
              <mxPoint x="259" y="440" />
              <mxPoint x="259" y="470" />
            </Array>
          </mxGeometry>
        </mxCell>
        <mxCell id="Q8JPxETYIf0AdVCPlq3T-40" value="EXTRAER LINK" style="rounded=0;whiteSpace=wrap;html=1;" parent="1" vertex="1">
          <mxGeometry x="205.94" y="500" width="106.87" height="30" as="geometry" />
        </mxCell>
        <mxCell id="Q8JPxETYIf0AdVCPlq3T-41" value="" style="endArrow=classic;html=1;entryX=0;entryY=0.5;entryDx=0;entryDy=0;" parent="1" target="Q8JPxETYIf0AdVCPlq3T-30" edge="1">
          <mxGeometry width="50" height="50" relative="1" as="geometry">
            <mxPoint x="320" y="515" as="sourcePoint" />
            <mxPoint x="450" y="360" as="targetPoint" />
          </mxGeometry>
        </mxCell>
        <mxCell id="Q8JPxETYIf0AdVCPlq3T-44" value="" style="endArrow=classic;html=1;exitX=0.5;exitY=1;exitDx=0;exitDy=0;" parent="1" source="Q8JPxETYIf0AdVCPlq3T-51" edge="1">
          <mxGeometry width="50" height="50" relative="1" as="geometry">
            <mxPoint x="230" y="320" as="sourcePoint" />
            <mxPoint x="311" y="330" as="targetPoint" />
          </mxGeometry>
        </mxCell>
        <mxCell id="Q8JPxETYIf0AdVCPlq3T-47" value="SI" style="text;html=1;align=center;verticalAlign=middle;resizable=0;points=[];autosize=1;" parent="1" vertex="1">
          <mxGeometry x="244.38" y="380" width="30" height="20" as="geometry" />
        </mxCell>
        <mxCell id="Q8JPxETYIf0AdVCPlq3T-48" value="" style="endArrow=classic;html=1;exitX=0.5;exitY=1;exitDx=0;exitDy=0;" parent="1" source="Q8JPxETYIf0AdVCPlq3T-29" edge="1">
          <mxGeometry width="50" height="50" relative="1" as="geometry">
            <mxPoint x="380" y="350" as="sourcePoint" />
            <mxPoint x="310" y="20" as="targetPoint" />
          </mxGeometry>
        </mxCell>
        <mxCell id="Q8JPxETYIf0AdVCPlq3T-51" value="ES ARCHIVO?" style="rhombus;whiteSpace=wrap;html=1;" parent="1" vertex="1">
          <mxGeometry x="243.12" y="260" width="133.75" height="50" as="geometry" />
        </mxCell>
        <mxCell id="8ss8niaZClUd9AMCk5Hf-4" style="edgeStyle=orthogonalEdgeStyle;rounded=0;orthogonalLoop=1;jettySize=auto;html=1;exitX=1;exitY=0.5;exitDx=0;exitDy=0;entryX=1;entryY=0.5;entryDx=0;entryDy=0;" edge="1" parent="1" source="Q8JPxETYIf0AdVCPlq3T-52" target="Q8JPxETYIf0AdVCPlq3T-30">
          <mxGeometry relative="1" as="geometry">
            <mxPoint x="590" y="100" as="targetPoint" />
            <Array as="points">
              <mxPoint x="660" y="100" />
              <mxPoint x="660" y="515" />
            </Array>
          </mxGeometry>
        </mxCell>
        <mxCell id="Q8JPxETYIf0AdVCPlq3T-52" value="PATH EXISTE?" style="rhombus;whiteSpace=wrap;html=1;" parent="1" vertex="1">
          <mxGeometry x="235" y="80" width="150" height="40" as="geometry" />
        </mxCell>
        <mxCell id="Q8JPxETYIf0AdVCPlq3T-53" value="SI" style="text;html=1;align=center;verticalAlign=middle;resizable=0;points=[];autosize=1;" parent="1" vertex="1">
          <mxGeometry x="285" y="130" width="30" height="20" as="geometry" />
        </mxCell>
        <mxCell id="8ss8niaZClUd9AMCk5Hf-6" value="NO" style="text;html=1;align=center;verticalAlign=middle;resizable=0;points=[];autosize=1;" vertex="1" parent="1">
          <mxGeometry x="485" y="80" width="30" height="20" as="geometry" />
        </mxCell>
        <mxCell id="8ss8niaZClUd9AMCk5Hf-7" value="LEER PATH" style="shape=parallelogram;perimeter=parallelogramPerimeter;whiteSpace=wrap;html=1;fixedSize=1;" vertex="1" parent="1">
          <mxGeometry x="249.98999999999998" y="20" width="120" height="40" as="geometry" />
        </mxCell>
        <mxCell id="8ss8niaZClUd9AMCk5Hf-9" value="" style="endArrow=classic;html=1;exitX=0.5;exitY=1;exitDx=0;exitDy=0;entryX=0.5;entryY=0;entryDx=0;entryDy=0;" edge="1" parent="1" source="8ss8niaZClUd9AMCk5Hf-7" target="Q8JPxETYIf0AdVCPlq3T-52">
          <mxGeometry width="50" height="50" relative="1" as="geometry">
            <mxPoint x="390" y="240" as="sourcePoint" />
            <mxPoint x="440" y="190" as="targetPoint" />
          </mxGeometry>
        </mxCell>
        <mxCell id="8ss8niaZClUd9AMCk5Hf-11" value="NO" style="text;html=1;align=center;verticalAlign=middle;resizable=0;points=[];autosize=1;" vertex="1" parent="1">
          <mxGeometry x="395" y="170" width="30" height="20" as="geometry" />
        </mxCell>
        <mxCell id="8ss8niaZClUd9AMCk5Hf-13" value="CONVERTIR A RUTA ABSOLUTA" style="rounded=0;whiteSpace=wrap;html=1;" vertex="1" parent="1">
          <mxGeometry x="450" y="160" width="120" height="60" as="geometry" />
        </mxCell>
        <mxCell id="8ss8niaZClUd9AMCk5Hf-14" value="" style="endArrow=classic;html=1;exitX=0.5;exitY=1;exitDx=0;exitDy=0;entryX=0.709;entryY=0.14;entryDx=0;entryDy=0;entryPerimeter=0;" edge="1" parent="1" source="8ss8niaZClUd9AMCk5Hf-13" target="Q8JPxETYIf0AdVCPlq3T-51">
          <mxGeometry width="50" height="50" relative="1" as="geometry">
            <mxPoint x="390" y="350" as="sourcePoint" />
            <mxPoint x="440" y="300" as="targetPoint" />
          </mxGeometry>
        </mxCell>
        <mxCell id="8ss8niaZClUd9AMCk5Hf-15" value="EXTRAER TODOSLOS ARCHIVOS&amp;nbsp; DE LA CARPETA&amp;nbsp; DE FORMA RECURSIVA" style="rounded=0;whiteSpace=wrap;html=1;" vertex="1" parent="1">
          <mxGeometry x="460" y="250" width="130" height="70" as="geometry" />
        </mxCell>
        <mxCell id="8ss8niaZClUd9AMCk5Hf-16" value="" style="endArrow=classic;html=1;exitX=0.5;exitY=1;exitDx=0;exitDy=0;entryX=1;entryY=0.5;entryDx=0;entryDy=0;" edge="1" parent="1" source="8ss8niaZClUd9AMCk5Hf-15" target="8ss8niaZClUd9AMCk5Hf-17">
          <mxGeometry width="50" height="50" relative="1" as="geometry">
            <mxPoint x="390" y="320" as="sourcePoint" />
            <mxPoint x="321.8800000000001" y="440" as="targetPoint" />
          </mxGeometry>
        </mxCell>
        <mxCell id="8ss8niaZClUd9AMCk5Hf-17" value="ES MARK DOWN" style="rhombus;whiteSpace=wrap;html=1;" vertex="1" parent="1">
          <mxGeometry x="236.26" y="330" width="150" height="40" as="geometry" />
        </mxCell>
        <mxCell id="8ss8niaZClUd9AMCk5Hf-18" value="LEER ARCHIVO" style="rounded=0;whiteSpace=wrap;html=1;" vertex="1" parent="1">
          <mxGeometry x="199.38" y="410" width="120" height="40" as="geometry" />
        </mxCell>
        <mxCell id="8ss8niaZClUd9AMCk5Hf-21" value="" style="endArrow=classic;html=1;entryX=0;entryY=0.5;entryDx=0;entryDy=0;exitX=0.949;exitY=0.5;exitDx=0;exitDy=0;exitPerimeter=0;" edge="1" parent="1" source="Q8JPxETYIf0AdVCPlq3T-51" target="8ss8niaZClUd9AMCk5Hf-15">
          <mxGeometry width="50" height="50" relative="1" as="geometry">
            <mxPoint x="380" y="290" as="sourcePoint" />
            <mxPoint x="440" y="280" as="targetPoint" />
          </mxGeometry>
        </mxCell>
        <mxCell id="8ss8niaZClUd9AMCk5Hf-23" value="SI" style="text;html=1;align=center;verticalAlign=middle;resizable=0;points=[];autosize=1;" vertex="1" parent="1">
          <mxGeometry x="315" y="310" width="30" height="20" as="geometry" />
        </mxCell>
        <mxCell id="8ss8niaZClUd9AMCk5Hf-24" value="NO" style="text;html=1;align=center;verticalAlign=middle;resizable=0;points=[];autosize=1;" vertex="1" parent="1">
          <mxGeometry x="399" y="270" width="30" height="20" as="geometry" />
        </mxCell>
      </root>
    </mxGraphModel>
  </diagram>
</mxfile>
